# xmcd
#
# Track frame offsets: 
#        150
#        7246
#        25927
#        51856
#        69423
#        86994
#        114928
#        141084
#        167402
#        189374
#        225585
#        254005
#
# Disc length: 3777 seconds
#
# Revision: 1
# Processed by: cddbd v1.5.2PL0 Copyright (c) Steve Scherf et al.
# Submitted via: ExactAudioCopy v1.1
#
DISCID=9e0ebf0c
DTITLE=DJ Katrin Vesna - Лед огонь и виски (Глен Клайд)
DYEAR=2003
DGENRE=Electronic
TTITLE0=Set 1
TTITLE1=Set 2
TTITLE2=Set 3
TTITLE3=Set 4
TTITLE4=Set 5 
TTITLE5=Set 6
TTITLE6=Se 7
TTITLE7=Set 8
TTITLE8=Set 9
TTITLE9=Set 10
TTITLE10=Set 11
TTITLE11=Set 12
EXTD=
EXTT0=
EXTT1=
EXTT2=
EXTT3=
EXTT4=
EXTT5=
EXTT6=
EXTT7=
EXTT8=
EXTT9=
EXTT10=
EXTT11=
PLAYORDER=
